<svg xmlns="http://www.w3.org/2000/svg" xmlns:xlink="http://www.w3.org/1999/xlink" width="1019" zoomAndPan="magnify" viewBox="0 0 764.25 89.999999" height="120" preserveAspectRatio="xMidYMid meet" version="1.0"><defs><clipPath id="41f0722dd9"><path d="M 0.148438 0.199219 L 763.351562 0.199219 L 763.351562 89.800781 L 0.148438 89.800781 Z M 0.148438 0.199219 " clip-rule="nonzero"/></clipPath><clipPath id="d9e0f4b022"><path d="M 28.621094 0.199219 L 734.878906 0.199219 C 742.429688 0.199219 749.671875 3.199219 755.011719 8.539062 C 760.351562 13.878906 763.351562 21.121094 763.351562 28.671875 L 763.351562 61.328125 C 763.351562 68.878906 760.351562 76.121094 755.011719 81.460938 C 749.671875 86.800781 742.429688 89.800781 734.878906 89.800781 L 28.621094 89.800781 C 21.070312 89.800781 13.828125 86.800781 8.488281 81.460938 C 3.148438 76.121094 0.148438 68.878906 0.148438 61.328125 L 0.148438 28.671875 C 0.148438 21.121094 3.148438 13.878906 8.488281 8.539062 C 13.828125 3.199219 21.070312 0.199219 28.621094 0.199219 Z M 28.621094 0.199219 " clip-rule="nonzero"/></clipPath></defs><g clip-path="url(#41f0722dd9)"><g clip-path="url(#d9e0f4b022)"><path fill="#f0d7e0" d="M 0.148438 0.199219 L 763.351562 0.199219 L 763.351562 89.800781 L 0.148438 89.800781 Z M 0.148438 0.199219 " fill-opacity="1" fill-rule="nonzero"/></g></g></svg>