<svg xmlns="http://www.w3.org/2000/svg" xmlns:xlink="http://www.w3.org/1999/xlink" width="129" zoomAndPan="magnify" viewBox="0 0 96.75 38.999999" height="52" preserveAspectRatio="xMidYMid meet" version="1.0"><defs><g/></defs><g fill="#ffffff" fill-opacity="1"><g transform="translate(4.364023, 29.468791)"><g><path d="M 18.332031 -11.953125 L 11.203125 -11.953125 C 10.453125 -11.953125 10.257812 -11.59375 10.257812 -11.007812 L 10.257812 -8.46875 C 10.257812 -7.878906 10.453125 -7.523438 11.203125 -7.523438 L 14.132812 -7.523438 C 14.132812 -5.015625 12.636719 -4.039062 10.519531 -4.039062 C 8.367188 -4.039062 6.9375 -5.242188 6.9375 -7.328125 L 6.9375 -13.871094 C 6.9375 -15.957031 8.367188 -17.390625 10.519531 -17.390625 C 12.699219 -17.390625 13.871094 -16.414062 14.230469 -15.402344 C 14.394531 -14.945312 14.261719 -14.296875 15.175781 -14.296875 L 18.332031 -14.296875 C 19.082031 -14.296875 19.277344 -14.425781 19.277344 -15.207031 C 19.277344 -19.570312 14.589844 -21.917969 10.519531 -21.917969 C 6.675781 -21.917969 1.757812 -19.734375 1.757812 -14.589844 L 1.757812 -6.578125 C 1.757812 -1.464844 6.675781 0.488281 10.519531 0.488281 C 14.230469 0.488281 18.984375 -1.59375 19.277344 -6.285156 L 19.277344 -11.007812 C 19.277344 -11.59375 19.082031 -11.953125 18.332031 -11.953125 Z M 18.332031 -11.953125 "/></g></g></g><g fill="#ffffff" fill-opacity="1"><g transform="translate(25.39972, 29.468791)"><g><path d="M 20.839844 -0.910156 L 13.644531 -20.417969 C 13.351562 -21.101562 13.027344 -21.425781 12.308594 -21.425781 L 9.183594 -21.425781 C 8.46875 -21.425781 8.109375 -21.101562 7.847656 -20.417969 L 0.617188 -0.910156 C 0.457031 -0.519531 0.457031 0 1.171875 0 L 4.589844 0 C 5.308594 0 5.570312 -0.195312 5.828125 -0.976562 L 6.742188 -3.550781 L 14.71875 -3.550781 L 15.632812 -0.976562 C 15.890625 -0.195312 16.152344 0 16.867188 0 L 20.289062 0 C 21.003906 0 21.003906 -0.519531 20.839844 -0.910156 Z M 10.746094 -15.304688 L 13.1875 -8.109375 L 8.304688 -8.109375 Z M 10.746094 -15.304688 "/></g></g></g><g fill="#ffffff" fill-opacity="1"><g transform="translate(46.728486, 29.468791)"><g><path d="M 21.621094 -21.460938 L 18.496094 -21.460938 C 17.421875 -21.460938 17.257812 -20.742188 17.03125 -20.351562 L 12.539062 -12.34375 L 8.074219 -20.351562 C 7.816406 -20.742188 7.683594 -21.460938 6.578125 -21.460938 L 3.355469 -21.460938 C 2.605469 -21.460938 2.410156 -21.101562 2.410156 -20.515625 L 2.410156 -0.945312 C 2.410156 -0.195312 2.769531 0 3.355469 0 L 6.578125 0 C 7.164062 0 7.523438 -0.195312 7.523438 -0.945312 L 7.523438 -11.984375 L 10.8125 -6.285156 C 10.972656 -6.023438 11.234375 -5.601562 11.722656 -5.601562 L 13.351562 -5.601562 C 13.839844 -5.601562 14.132812 -6.023438 14.296875 -6.285156 L 17.550781 -11.984375 L 17.550781 -0.945312 C 17.550781 -0.195312 17.910156 0 18.496094 0 L 21.621094 0 C 22.210938 0 22.566406 -0.195312 22.566406 -0.945312 L 22.566406 -20.515625 C 22.566406 -21.101562 22.371094 -21.460938 21.621094 -21.460938 Z M 21.621094 -21.460938 "/></g></g></g><g fill="#ffffff" fill-opacity="1"><g transform="translate(71.704307, 29.468791)"><g><path d="M 17.941406 -4.558594 L 7.554688 -4.558594 L 7.554688 -8.859375 L 16.28125 -8.859375 C 17.03125 -8.859375 17.226562 -9.214844 17.226562 -9.800781 L 17.226562 -12.34375 C 17.226562 -12.929688 17.03125 -13.285156 16.28125 -13.285156 L 7.554688 -13.285156 L 7.554688 -16.835938 L 17.390625 -16.835938 C 18.136719 -16.835938 18.332031 -17.195312 18.332031 -17.78125 L 18.332031 -20.484375 C 18.332031 -21.070312 18.136719 -21.425781 17.390625 -21.425781 L 3.355469 -21.425781 C 2.605469 -21.425781 2.410156 -21.070312 2.410156 -20.484375 L 2.410156 -0.945312 C 2.410156 -0.359375 2.605469 0 3.355469 0 L 17.941406 0 C 18.691406 0 18.886719 -0.359375 18.886719 -0.945312 L 18.886719 -3.613281 C 18.886719 -4.199219 18.691406 -4.558594 17.941406 -4.558594 Z M 17.941406 -4.558594 "/></g></g></g></svg>