<svg xmlns="http://www.w3.org/2000/svg" xmlns:xlink="http://www.w3.org/1999/xlink" width="1280" zoomAndPan="magnify" viewBox="0 0 960 401.999985" height="536" preserveAspectRatio="xMidYMid meet" version="1.0"><defs><filter x="0%" y="0%" width="100%" height="100%" id="2f9e545ae0"><feColorMatrix values="0 0 0 0 1 0 0 0 0 1 0 0 0 0 1 0 0 0 1 0" color-interpolation-filters="sRGB"/></filter><mask id="773fbbddea"><g filter="url(#2f9e545ae0)"><rect x="-96" width="1152" fill="#000000" y="-40.199999" height="482.399982" fill-opacity="0.75"/></g></mask><clipPath id="2d67c23f45"><path d="M 0 0 L 959.625 0 L 959.625 401.898438 L 0 401.898438 Z M 0 0 " clip-rule="nonzero"/></clipPath><clipPath id="f8c4574aea"><path d="M 28.5 0 L 931.125 0 C 946.863281 0 959.625 12.761719 959.625 28.5 L 959.625 373.398438 C 959.625 389.136719 946.863281 401.898438 931.125 401.898438 L 28.5 401.898438 C 12.761719 401.898438 0 389.136719 0 373.398438 L 0 28.5 C 0 12.761719 12.761719 0 28.5 0 Z M 28.5 0 " clip-rule="nonzero"/></clipPath><clipPath id="b076f0f276"><rect x="0" width="960" y="0" height="402"/></clipPath><clipPath id="9ac1990b84"><path d="M 18.898438 11.628906 L 940.726562 11.628906 L 940.726562 390.265625 L 18.898438 390.265625 Z M 18.898438 11.628906 " clip-rule="nonzero"/></clipPath><clipPath id="79c5b8eeda"><path d="M 47.398438 11.628906 L 912.226562 11.628906 C 927.96875 11.628906 940.726562 24.390625 940.726562 40.128906 L 940.726562 361.765625 C 940.726562 377.507812 927.96875 390.265625 912.226562 390.265625 L 47.398438 390.265625 C 31.65625 390.265625 18.898438 377.507812 18.898438 361.765625 L 18.898438 40.128906 C 18.898438 24.390625 31.65625 11.628906 47.398438 11.628906 Z M 47.398438 11.628906 " clip-rule="nonzero"/></clipPath></defs><g mask="url(#773fbbddea)"><g transform="matrix(1, 0, 0, 1, -0, 0)"><g clip-path="url(#b076f0f276)"><g clip-path="url(#2d67c23f45)"><g clip-path="url(#f8c4574aea)"><path fill="#1d0d33" d="M 0 0 L 959.625 0 L 959.625 401.898438 L 0 401.898438 Z M 0 0 " fill-opacity="1" fill-rule="nonzero"/></g></g></g></g></g><g clip-path="url(#9ac1990b84)"><g clip-path="url(#79c5b8eeda)"><path fill="#1d0d33" d="M 18.898438 11.628906 L 940.726562 11.628906 L 940.726562 390.265625 L 18.898438 390.265625 Z M 18.898438 11.628906 " fill-opacity="1" fill-rule="nonzero"/></g></g></svg>