<svg xmlns="http://www.w3.org/2000/svg" xmlns:xlink="http://www.w3.org/1999/xlink" width="329" zoomAndPan="magnify" viewBox="0 0 246.75 38.999999" height="52" preserveAspectRatio="xMidYMid meet" version="1.0"><defs><g/></defs><g fill="#ffffff" fill-opacity="1"><g transform="translate(7.306092, 29.484434)"><g><path d="M 16.925781 -4.566406 L 7.535156 -4.566406 L 7.535156 -20.515625 C 7.535156 -21.265625 7.175781 -21.460938 6.589844 -21.460938 L 3.359375 -21.460938 C 2.773438 -21.460938 2.414062 -21.265625 2.414062 -20.515625 L 2.414062 -0.945312 C 2.414062 -0.359375 2.609375 0 3.359375 0 L 16.925781 0 C 17.679688 0 17.875 -0.359375 17.875 -0.945312 L 17.875 -3.621094 C 17.875 -4.207031 17.679688 -4.566406 16.925781 -4.566406 Z M 16.925781 -4.566406 "/></g></g></g><g fill="#ffffff" fill-opacity="1"><g transform="translate(26.287497, 29.484434)"><g><path d="M 17.972656 -4.566406 L 7.566406 -4.566406 L 7.566406 -8.871094 L 16.308594 -8.871094 C 17.058594 -8.871094 17.253906 -9.230469 17.253906 -9.816406 L 17.253906 -12.363281 C 17.253906 -12.949219 17.058594 -13.308594 16.308594 -13.308594 L 7.566406 -13.308594 L 7.566406 -16.863281 L 17.417969 -16.863281 C 18.167969 -16.863281 18.363281 -17.222656 18.363281 -17.808594 L 18.363281 -20.515625 C 18.363281 -21.101562 18.167969 -21.460938 17.417969 -21.460938 L 3.359375 -21.460938 C 2.609375 -21.460938 2.414062 -21.101562 2.414062 -20.515625 L 2.414062 -0.945312 C 2.414062 -0.359375 2.609375 0 3.359375 0 L 17.972656 0 C 18.722656 0 18.917969 -0.359375 18.917969 -0.945312 L 18.917969 -3.621094 C 18.917969 -4.207031 18.722656 -4.566406 17.972656 -4.566406 Z M 17.972656 -4.566406 "/></g></g></g><g fill="#ffffff" fill-opacity="1"><g transform="translate(46.736535, 29.484434)"><g><path d="M 20.875 -0.914062 L 13.667969 -20.449219 C 13.371094 -21.136719 13.046875 -21.460938 12.328125 -21.460938 L 9.199219 -21.460938 C 8.480469 -21.460938 8.121094 -21.136719 7.859375 -20.449219 L 0.621094 -0.914062 C 0.457031 -0.523438 0.457031 0 1.175781 0 L 4.597656 0 C 5.316406 0 5.578125 -0.195312 5.839844 -0.976562 L 6.75 -3.554688 L 14.742188 -3.554688 L 15.65625 -0.976562 C 15.917969 -0.195312 16.175781 0 16.894531 0 L 20.320312 0 C 21.039062 0 21.039062 -0.523438 20.875 -0.914062 Z M 10.761719 -15.328125 L 13.210938 -8.121094 L 8.316406 -8.121094 Z M 10.761719 -15.328125 "/></g></g></g><g fill="#ffffff" fill-opacity="1"><g transform="translate(68.09877, 29.484434)"><g><path d="M 10.664062 -21.460938 L 3.359375 -21.460938 C 2.609375 -21.460938 2.414062 -21.101562 2.414062 -20.515625 L 2.414062 -0.945312 C 2.414062 -0.359375 2.609375 0 3.359375 0 L 10.664062 0 C 14.546875 0 19.4375 -2.21875 19.4375 -7.339844 L 19.4375 -14.121094 C 19.4375 -19.210938 14.546875 -21.460938 10.664062 -21.460938 Z M 14.316406 -13.667969 L 14.316406 -7.796875 C 14.316406 -5.707031 12.816406 -4.535156 10.664062 -4.535156 L 7.535156 -4.535156 L 7.535156 -16.925781 L 10.664062 -16.925781 C 12.816406 -16.925781 14.316406 -15.722656 14.316406 -13.667969 Z M 14.316406 -13.667969 "/></g></g></g><g fill="#ffffff" fill-opacity="1"><g transform="translate(89.297931, 29.484434)"><g><path d="M 17.972656 -4.566406 L 7.566406 -4.566406 L 7.566406 -8.871094 L 16.308594 -8.871094 C 17.058594 -8.871094 17.253906 -9.230469 17.253906 -9.816406 L 17.253906 -12.363281 C 17.253906 -12.949219 17.058594 -13.308594 16.308594 -13.308594 L 7.566406 -13.308594 L 7.566406 -16.863281 L 17.417969 -16.863281 C 18.167969 -16.863281 18.363281 -17.222656 18.363281 -17.808594 L 18.363281 -20.515625 C 18.363281 -21.101562 18.167969 -21.460938 17.417969 -21.460938 L 3.359375 -21.460938 C 2.609375 -21.460938 2.414062 -21.101562 2.414062 -20.515625 L 2.414062 -0.945312 C 2.414062 -0.359375 2.609375 0 3.359375 0 L 17.972656 0 C 18.722656 0 18.917969 -0.359375 18.917969 -0.945312 L 18.917969 -3.621094 C 18.917969 -4.207031 18.722656 -4.566406 17.972656 -4.566406 Z M 17.972656 -4.566406 "/></g></g></g><g fill="#ffffff" fill-opacity="1"><g transform="translate(109.746969, 29.484434)"><g><path d="M 19.992188 -1.042969 L 15.394531 -7.730469 C 17.417969 -8.414062 19.929688 -10.796875 19.929688 -14.21875 C 19.929688 -16.308594 19.242188 -18.167969 18.035156 -19.339844 C 16.667969 -20.710938 15.101562 -21.429688 11.546875 -21.429688 L 3.328125 -21.429688 C 2.578125 -21.429688 2.414062 -21.070312 2.414062 -20.484375 L 2.414062 -0.945312 C 2.414062 -0.195312 2.738281 0 3.328125 0 L 6.554688 0 C 7.144531 0 7.5 -0.195312 7.5 -0.945312 L 7.5 -16.863281 L 11.839844 -16.863281 C 13.535156 -16.863281 14.839844 -15.785156 14.839844 -14.089844 C 14.839844 -12.558594 13.339844 -11.449219 11.742188 -11.449219 L 11.089844 -11.449219 C 10.339844 -11.449219 10.144531 -11.089844 10.144531 -10.503906 L 10.144531 -7.894531 C 10.144531 -6.980469 10.207031 -6.621094 10.503906 -6.230469 L 14.023438 -0.976562 C 14.480469 -0.292969 14.871094 0 15.65625 0 L 19.503906 0 C 20.125 0 20.285156 -0.585938 19.992188 -1.042969 Z M 19.992188 -1.042969 "/></g></g></g><g fill="#ffffff" fill-opacity="1"><g transform="translate(131.467955, 29.484434)"><g><path d="M 17.710938 -11.121094 C 18.003906 -11.253906 20.089844 -12.296875 20.089844 -15.589844 C 20.089844 -18.65625 17.808594 -21.492188 12.492188 -21.492188 L 3.359375 -21.492188 C 2.609375 -21.492188 2.414062 -21.136719 2.414062 -20.546875 L 2.414062 -0.945312 C 2.414062 -0.359375 2.609375 0 3.359375 0 L 12.949219 0 C 17.480469 0 20.710938 -2.121094 20.710938 -6.261719 C 20.710938 -9.785156 17.972656 -11.023438 17.710938 -11.121094 Z M 13.015625 -4.632812 L 7.535156 -4.632812 L 7.535156 -16.894531 L 12.492188 -16.894531 C 14.1875 -16.894531 15.199219 -16.535156 15.199219 -15.070312 C 15.199219 -13.796875 14.382812 -13.113281 12.492188 -13.113281 L 12.066406 -13.113281 C 11.316406 -13.113281 11.121094 -12.753906 11.121094 -12.164062 L 11.121094 -9.6875 C 11.121094 -9.101562 11.316406 -8.742188 12.066406 -8.742188 L 12.816406 -8.742188 C 14.382812 -8.742188 15.523438 -8.285156 15.523438 -6.75 C 15.523438 -5.285156 14.613281 -4.632812 13.015625 -4.632812 Z M 13.015625 -4.632812 "/></g></g></g><g fill="#ffffff" fill-opacity="1"><g transform="translate(153.87385, 29.484434)"><g><path d="M 19.277344 -6.882812 L 19.277344 -14.578125 C 19.277344 -19.734375 14.382812 -21.949219 10.503906 -21.949219 C 6.621094 -21.949219 1.792969 -19.734375 1.792969 -14.578125 L 1.792969 -6.882812 C 1.792969 -1.730469 6.621094 0.488281 10.503906 0.488281 C 14.382812 0.488281 19.277344 -1.730469 19.277344 -6.882812 Z M 14.15625 -14.121094 L 14.15625 -7.339844 C 14.15625 -5.25 12.65625 -4.042969 10.503906 -4.042969 C 8.382812 -4.042969 6.882812 -5.25 6.882812 -7.339844 L 6.882812 -14.121094 C 6.882812 -16.210938 8.382812 -17.417969 10.503906 -17.417969 C 12.65625 -17.417969 14.15625 -16.210938 14.15625 -14.121094 Z M 14.15625 -14.121094 "/></g></g></g><g fill="#ffffff" fill-opacity="1"><g transform="translate(174.909953, 29.484434)"><g><path d="M 20.875 -0.914062 L 13.667969 -20.449219 C 13.371094 -21.136719 13.046875 -21.460938 12.328125 -21.460938 L 9.199219 -21.460938 C 8.480469 -21.460938 8.121094 -21.136719 7.859375 -20.449219 L 0.621094 -0.914062 C 0.457031 -0.523438 0.457031 0 1.175781 0 L 4.597656 0 C 5.316406 0 5.578125 -0.195312 5.839844 -0.976562 L 6.75 -3.554688 L 14.742188 -3.554688 L 15.65625 -0.976562 C 15.917969 -0.195312 16.175781 0 16.894531 0 L 20.320312 0 C 21.039062 0 21.039062 -0.523438 20.875 -0.914062 Z M 10.761719 -15.328125 L 13.210938 -8.121094 L 8.316406 -8.121094 Z M 10.761719 -15.328125 "/></g></g></g><g fill="#ffffff" fill-opacity="1"><g transform="translate(196.272188, 29.484434)"><g><path d="M 19.992188 -1.042969 L 15.394531 -7.730469 C 17.417969 -8.414062 19.929688 -10.796875 19.929688 -14.21875 C 19.929688 -16.308594 19.242188 -18.167969 18.035156 -19.339844 C 16.667969 -20.710938 15.101562 -21.429688 11.546875 -21.429688 L 3.328125 -21.429688 C 2.578125 -21.429688 2.414062 -21.070312 2.414062 -20.484375 L 2.414062 -0.945312 C 2.414062 -0.195312 2.738281 0 3.328125 0 L 6.554688 0 C 7.144531 0 7.5 -0.195312 7.5 -0.945312 L 7.5 -16.863281 L 11.839844 -16.863281 C 13.535156 -16.863281 14.839844 -15.785156 14.839844 -14.089844 C 14.839844 -12.558594 13.339844 -11.449219 11.742188 -11.449219 L 11.089844 -11.449219 C 10.339844 -11.449219 10.144531 -11.089844 10.144531 -10.503906 L 10.144531 -7.894531 C 10.144531 -6.980469 10.207031 -6.621094 10.503906 -6.230469 L 14.023438 -0.976562 C 14.480469 -0.292969 14.871094 0 15.65625 0 L 19.503906 0 C 20.125 0 20.285156 -0.585938 19.992188 -1.042969 Z M 19.992188 -1.042969 "/></g></g></g><g fill="#ffffff" fill-opacity="1"><g transform="translate(217.993175, 29.484434)"><g><path d="M 10.664062 -21.460938 L 3.359375 -21.460938 C 2.609375 -21.460938 2.414062 -21.101562 2.414062 -20.515625 L 2.414062 -0.945312 C 2.414062 -0.359375 2.609375 0 3.359375 0 L 10.664062 0 C 14.546875 0 19.4375 -2.21875 19.4375 -7.339844 L 19.4375 -14.121094 C 19.4375 -19.210938 14.546875 -21.460938 10.664062 -21.460938 Z M 14.316406 -13.667969 L 14.316406 -7.796875 C 14.316406 -5.707031 12.816406 -4.535156 10.664062 -4.535156 L 7.535156 -4.535156 L 7.535156 -16.925781 L 10.664062 -16.925781 C 12.816406 -16.925781 14.316406 -15.722656 14.316406 -13.667969 Z M 14.316406 -13.667969 "/></g></g></g></svg>