<svg xmlns="http://www.w3.org/2000/svg" xmlns:xlink="http://www.w3.org/1999/xlink" width="451" zoomAndPan="magnify" viewBox="0 0 338.25 42" height="56" preserveAspectRatio="xMidYMid meet" version="1.0"><defs><clipPath id="3d2ca9ee1f"><path d="M 3.566406 0.253906 L 44.328125 0.253906 L 44.328125 41.015625 L 3.566406 41.015625 Z M 3.566406 0.253906 " clip-rule="nonzero"/></clipPath><clipPath id="3afb4894e8"><path d="M 23.949219 0.253906 C 12.691406 0.253906 3.566406 9.378906 3.566406 20.636719 C 3.566406 31.890625 12.691406 41.015625 23.949219 41.015625 C 35.203125 41.015625 44.328125 31.890625 44.328125 20.636719 C 44.328125 9.378906 35.203125 0.253906 23.949219 0.253906 Z M 23.949219 0.253906 " clip-rule="nonzero"/></clipPath><clipPath id="10ec649837"><path d="M 59.027344 0 L 333.820312 0 L 333.820312 41.015625 L 59.027344 41.015625 Z M 59.027344 0 " clip-rule="nonzero"/></clipPath><clipPath id="6e8e24513a"><path d="M 79.535156 0 L 313.3125 0 C 318.753906 0 323.96875 2.160156 327.816406 6.007812 C 331.660156 9.851562 333.820312 15.070312 333.820312 20.507812 C 333.820312 25.949219 331.660156 31.164062 327.816406 35.007812 C 323.96875 38.855469 318.753906 41.015625 313.3125 41.015625 L 79.535156 41.015625 C 74.097656 41.015625 68.878906 38.855469 65.035156 35.007812 C 61.1875 31.164062 59.027344 25.949219 59.027344 20.507812 C 59.027344 15.070312 61.1875 9.851562 65.035156 6.007812 C 68.878906 2.160156 74.097656 0 79.535156 0 Z M 79.535156 0 " clip-rule="nonzero"/></clipPath><clipPath id="ae782b900d"><path d="M 16.476562 5.09375 L 31.210938 5.09375 L 31.210938 19.824219 L 16.476562 19.824219 Z M 16.476562 5.09375 " clip-rule="nonzero"/></clipPath><clipPath id="7286aae6e0"><path d="M 23.84375 5.09375 C 19.777344 5.09375 16.476562 8.390625 16.476562 12.457031 C 16.476562 16.527344 19.777344 19.824219 23.84375 19.824219 C 27.914062 19.824219 31.210938 16.527344 31.210938 12.457031 C 31.210938 8.390625 27.914062 5.09375 23.84375 5.09375 Z M 23.84375 5.09375 " clip-rule="nonzero"/></clipPath><clipPath id="7dc41a66ff"><path d="M 13.605469 21.707031 L 34.289062 21.707031 L 34.289062 36.167969 L 13.605469 36.167969 Z M 13.605469 21.707031 " clip-rule="nonzero"/></clipPath><clipPath id="8bafc60e31"><path d="M 20.835938 21.707031 L 27.058594 21.707031 C 28.976562 21.707031 30.816406 22.46875 32.171875 23.824219 C 33.527344 25.179688 34.289062 27.019531 34.289062 28.9375 C 34.289062 30.855469 33.527344 32.695312 32.171875 34.050781 C 30.816406 35.40625 28.976562 36.167969 27.058594 36.167969 L 20.835938 36.167969 C 18.917969 36.167969 17.078125 35.40625 15.722656 34.050781 C 14.367188 32.695312 13.605469 30.855469 13.605469 28.9375 C 13.605469 27.019531 14.367188 25.179688 15.722656 23.824219 C 17.078125 22.46875 18.917969 21.707031 20.835938 21.707031 Z M 20.835938 21.707031 " clip-rule="nonzero"/></clipPath></defs><g clip-path="url(#3d2ca9ee1f)"><g clip-path="url(#3afb4894e8)"><path fill="#f0d7e0" d="M 3.566406 0.253906 L 44.328125 0.253906 L 44.328125 41.015625 L 3.566406 41.015625 Z M 3.566406 0.253906 " fill-opacity="1" fill-rule="nonzero"/></g></g><g clip-path="url(#10ec649837)"><g clip-path="url(#6e8e24513a)"><path fill="#f0d7e0" d="M 59.027344 0 L 333.820312 0 L 333.820312 41.015625 L 59.027344 41.015625 Z M 59.027344 0 " fill-opacity="1" fill-rule="nonzero"/></g></g><g clip-path="url(#ae782b900d)"><g clip-path="url(#7286aae6e0)"><path fill="#1d0d33" d="M 16.476562 5.09375 L 31.210938 5.09375 L 31.210938 19.824219 L 16.476562 19.824219 Z M 16.476562 5.09375 " fill-opacity="1" fill-rule="nonzero"/></g></g><g clip-path="url(#7dc41a66ff)"><g clip-path="url(#8bafc60e31)"><path fill="#1d0d33" d="M 13.605469 21.707031 L 34.289062 21.707031 L 34.289062 36.167969 L 13.605469 36.167969 Z M 13.605469 21.707031 " fill-opacity="1" fill-rule="nonzero"/></g></g></svg>