<svg xmlns="http://www.w3.org/2000/svg" xmlns:xlink="http://www.w3.org/1999/xlink" width="732" zoomAndPan="magnify" viewBox="0 0 549 401.249997" height="535" preserveAspectRatio="xMidYMid meet" version="1.0"><defs><filter x="0%" y="0%" width="100%" height="100%" id="3864e629c1"><feColorMatrix values="0 0 0 0 1 0 0 0 0 1 0 0 0 0 1 0 0 0 1 0" color-interpolation-filters="sRGB"/></filter><clipPath id="925386ce3a"><path d="M 0.511719 0 L 548.488281 0 L 548.488281 400.5 L 0.511719 400.5 Z M 0.511719 0 " clip-rule="nonzero"/></clipPath><mask id="f1f56cf2eb"><g filter="url(#3864e629c1)"><rect x="-54.9" width="658.8" fill="#000000" y="-40.125" height="481.499996" fill-opacity="0.75"/></g></mask><clipPath id="66894ced42"><path d="M 0.511719 0 L 548.488281 0 L 548.488281 400.476562 L 0.511719 400.476562 Z M 0.511719 0 " clip-rule="nonzero"/></clipPath><clipPath id="402de9f22a"><path d="M 38.691406 0 L 510.308594 0 C 520.433594 0 530.144531 4.023438 537.304688 11.183594 C 544.464844 18.34375 548.488281 28.054688 548.488281 38.179688 L 548.488281 362.296875 C 548.488281 372.421875 544.464844 382.132812 537.304688 389.292969 C 530.144531 396.453125 520.433594 400.476562 510.308594 400.476562 L 38.691406 400.476562 C 28.566406 400.476562 18.855469 396.453125 11.695312 389.292969 C 4.535156 382.132812 0.511719 372.421875 0.511719 362.296875 L 0.511719 38.179688 C 0.511719 28.054688 4.535156 18.34375 11.695312 11.183594 C 18.855469 4.023438 28.566406 0 38.691406 0 Z M 38.691406 0 " clip-rule="nonzero"/></clipPath><clipPath id="a4e7d0827d"><rect x="0" width="549" y="0" height="401"/></clipPath><clipPath id="e1e70fe4fa"><path d="M 17.125 12.140625 L 531.875 12.140625 L 531.875 388.335938 L 17.125 388.335938 Z M 17.125 12.140625 " clip-rule="nonzero"/></clipPath><clipPath id="a8ef4768da"><path d="M 55.300781 12.140625 L 493.699219 12.140625 C 514.785156 12.140625 531.875 29.234375 531.875 50.320312 L 531.875 350.15625 C 531.875 371.242188 514.785156 388.335938 493.699219 388.335938 L 55.300781 388.335938 C 34.214844 388.335938 17.125 371.242188 17.125 350.15625 L 17.125 50.320312 C 17.125 29.234375 34.214844 12.140625 55.300781 12.140625 Z M 55.300781 12.140625 " clip-rule="nonzero"/></clipPath></defs><g clip-path="url(#925386ce3a)"><g mask="url(#f1f56cf2eb)"><g transform="matrix(1, 0, 0, 1, 0.000000000000000111, -0.00000000000000245)"><g clip-path="url(#a4e7d0827d)"><g clip-path="url(#66894ced42)"><g clip-path="url(#402de9f22a)"><path fill="#1d0d33" d="M 0.511719 0 L 548.488281 0 L 548.488281 400.476562 L 0.511719 400.476562 Z M 0.511719 0 " fill-opacity="1" fill-rule="nonzero"/></g></g></g></g></g></g><g clip-path="url(#e1e70fe4fa)"><g clip-path="url(#a8ef4768da)"><path fill="#1d0d33" d="M 17.125 12.140625 L 531.875 12.140625 L 531.875 388.335938 L 17.125 388.335938 Z M 17.125 12.140625 " fill-opacity="1" fill-rule="nonzero"/></g></g></svg>