<svg xmlns="http://www.w3.org/2000/svg" xmlns:xlink="http://www.w3.org/1999/xlink" width="451" zoomAndPan="magnify" viewBox="0 0 338.25 42" height="56" preserveAspectRatio="xMidYMid meet" version="1.0"><defs><clipPath id="23eef801c3"><path d="M 59.027344 0 L 333.820312 0 L 333.820312 41.015625 L 59.027344 41.015625 Z M 59.027344 0 " clip-rule="nonzero"/></clipPath><clipPath id="eb5c90a0e8"><path d="M 79.535156 0 L 313.3125 0 C 318.753906 0 323.96875 2.160156 327.816406 6.007812 C 331.660156 9.851562 333.820312 15.070312 333.820312 20.507812 C 333.820312 25.949219 331.660156 31.164062 327.816406 35.007812 C 323.96875 38.855469 318.753906 41.015625 313.3125 41.015625 L 79.535156 41.015625 C 74.097656 41.015625 68.878906 38.855469 65.035156 35.007812 C 61.1875 31.164062 59.027344 25.949219 59.027344 20.507812 C 59.027344 15.070312 61.1875 9.851562 65.035156 6.007812 C 68.878906 2.160156 74.097656 0 79.535156 0 Z M 79.535156 0 " clip-rule="nonzero"/></clipPath><clipPath id="865a212c60"><path d="M 3.566406 0.253906 L 44.328125 0.253906 L 44.328125 41.015625 L 3.566406 41.015625 Z M 3.566406 0.253906 " clip-rule="nonzero"/></clipPath><clipPath id="0d420f4ea2"><path d="M 23.949219 0.253906 C 12.691406 0.253906 3.566406 9.378906 3.566406 20.636719 C 3.566406 31.890625 12.691406 41.015625 23.949219 41.015625 C 35.203125 41.015625 44.328125 31.890625 44.328125 20.636719 C 44.328125 9.378906 35.203125 0.253906 23.949219 0.253906 Z M 23.949219 0.253906 " clip-rule="nonzero"/></clipPath><clipPath id="43ef001d8b"><path d="M 16.085938 7.433594 L 31.410156 7.433594 L 31.410156 22.757812 L 16.085938 22.757812 Z M 16.085938 7.433594 " clip-rule="nonzero"/></clipPath><clipPath id="120ee8e9e0"><path d="M 23.746094 7.433594 C 19.515625 7.433594 16.085938 10.863281 16.085938 15.097656 C 16.085938 19.328125 19.515625 22.757812 23.746094 22.757812 C 27.980469 22.757812 31.410156 19.328125 31.410156 15.097656 C 31.410156 10.863281 27.980469 7.433594 23.746094 7.433594 Z M 23.746094 7.433594 " clip-rule="nonzero"/></clipPath><clipPath id="3bf850471e"><path d="M 19.132812 10.5 L 28.324219 10.5 L 28.324219 19.691406 L 19.132812 19.691406 Z M 19.132812 10.5 " clip-rule="nonzero"/></clipPath><clipPath id="43123cf12b"><path d="M 23.730469 10.5 C 21.191406 10.5 19.132812 12.558594 19.132812 15.097656 C 19.132812 17.632812 21.191406 19.691406 23.730469 19.691406 C 26.269531 19.691406 28.324219 17.632812 28.324219 15.097656 C 28.324219 12.558594 26.269531 10.5 23.730469 10.5 Z M 23.730469 10.5 " clip-rule="nonzero"/></clipPath><clipPath id="6d7fb18205"><path d="M 11.148438 15.863281 L 36.488281 15.863281 L 36.488281 33.582031 L 11.148438 33.582031 Z M 11.148438 15.863281 " clip-rule="nonzero"/></clipPath><clipPath id="0b3748a70c"><path d="M 16.277344 15.863281 L 31.359375 15.863281 C 32.71875 15.863281 34.023438 16.40625 34.984375 17.367188 C 35.949219 18.328125 36.488281 19.632812 36.488281 20.992188 L 36.488281 28.453125 C 36.488281 29.8125 35.949219 31.117188 34.984375 32.078125 C 34.023438 33.042969 32.71875 33.582031 31.359375 33.582031 L 16.277344 33.582031 C 14.917969 33.582031 13.613281 33.042969 12.652344 32.078125 C 11.691406 31.117188 11.148438 29.8125 11.148438 28.453125 L 11.148438 20.992188 C 11.148438 19.632812 11.691406 18.328125 12.652344 17.367188 C 13.613281 16.40625 14.917969 15.863281 16.277344 15.863281 Z M 16.277344 15.863281 " clip-rule="nonzero"/></clipPath><clipPath id="2c55d1a96e"><path d="M 22.121094 22.894531 L 25.777344 22.894531 L 25.777344 26.550781 L 22.121094 26.550781 Z M 22.121094 22.894531 " clip-rule="nonzero"/></clipPath><clipPath id="2403e17de3"><path d="M 23.949219 22.894531 C 22.9375 22.894531 22.121094 23.714844 22.121094 24.722656 C 22.121094 25.734375 22.9375 26.550781 23.949219 26.550781 C 24.957031 26.550781 25.777344 25.734375 25.777344 24.722656 C 25.777344 23.714844 24.957031 22.894531 23.949219 22.894531 Z M 23.949219 22.894531 " clip-rule="nonzero"/></clipPath></defs><g clip-path="url(#23eef801c3)"><g clip-path="url(#eb5c90a0e8)"><path fill="#f0d7e0" d="M 59.027344 0 L 333.820312 0 L 333.820312 41.015625 L 59.027344 41.015625 Z M 59.027344 0 " fill-opacity="1" fill-rule="nonzero"/></g></g><g clip-path="url(#865a212c60)"><g clip-path="url(#0d420f4ea2)"><path fill="#f0d7e0" d="M 3.566406 0.253906 L 44.328125 0.253906 L 44.328125 41.015625 L 3.566406 41.015625 Z M 3.566406 0.253906 " fill-opacity="1" fill-rule="nonzero"/></g></g><g clip-path="url(#43ef001d8b)"><g clip-path="url(#120ee8e9e0)"><path fill="#1d0d33" d="M 16.085938 7.433594 L 31.410156 7.433594 L 31.410156 22.757812 L 16.085938 22.757812 Z M 16.085938 7.433594 " fill-opacity="1" fill-rule="nonzero"/></g></g><g clip-path="url(#3bf850471e)"><g clip-path="url(#43123cf12b)"><path fill="#f0d7e0" d="M 19.132812 10.5 L 28.324219 10.5 L 28.324219 19.691406 L 19.132812 19.691406 Z M 19.132812 10.5 " fill-opacity="1" fill-rule="nonzero"/></g></g><g clip-path="url(#6d7fb18205)"><g clip-path="url(#0b3748a70c)"><path fill="#1d0d33" d="M 11.148438 15.863281 L 36.488281 15.863281 L 36.488281 33.582031 L 11.148438 33.582031 Z M 11.148438 15.863281 " fill-opacity="1" fill-rule="nonzero"/></g></g><g clip-path="url(#2c55d1a96e)"><g clip-path="url(#2403e17de3)"><path fill="#f0d7e0" d="M 22.121094 22.894531 L 25.777344 22.894531 L 25.777344 26.550781 L 22.121094 26.550781 Z M 22.121094 22.894531 " fill-opacity="1" fill-rule="nonzero"/></g></g></svg>