<svg xmlns="http://www.w3.org/2000/svg" xmlns:xlink="http://www.w3.org/1999/xlink" width="253" zoomAndPan="magnify" viewBox="0 0 189.75 75.749997" height="101" preserveAspectRatio="xMidYMid meet" version="1.0"><defs><g/></defs><g fill="#ffffff" fill-opacity="1"><g transform="translate(0.51107, 56.958971)"><g><path d="M 32.617188 -8.796875 L 14.519531 -8.796875 L 14.519531 -39.53125 C 14.519531 -40.976562 13.828125 -41.351562 12.695312 -41.351562 L 6.472656 -41.351562 C 5.34375 -41.351562 4.652344 -40.976562 4.652344 -39.53125 L 4.652344 -1.824219 C 4.652344 -0.691406 5.027344 0 6.472656 0 L 32.617188 0 C 34.0625 0 34.441406 -0.691406 34.441406 -1.824219 L 34.441406 -6.976562 C 34.441406 -8.105469 34.0625 -8.796875 32.617188 -8.796875 Z M 32.617188 -8.796875 "/></g></g></g><g fill="#ffffff" fill-opacity="1"><g transform="translate(37.085035, 56.958971)"><g><path d="M 37.140625 -13.261719 L 37.140625 -28.09375 C 37.140625 -38.023438 27.714844 -42.296875 20.238281 -42.296875 C 12.757812 -42.296875 3.457031 -38.023438 3.457031 -28.09375 L 3.457031 -13.261719 C 3.457031 -3.332031 12.757812 0.941406 20.238281 0.941406 C 27.714844 0.941406 37.140625 -3.332031 37.140625 -13.261719 Z M 27.277344 -27.210938 L 27.277344 -14.140625 C 27.277344 -10.117188 24.382812 -7.792969 20.238281 -7.792969 C 16.152344 -7.792969 13.261719 -10.117188 13.261719 -14.140625 L 13.261719 -27.210938 C 13.261719 -31.234375 16.152344 -33.558594 20.238281 -33.558594 C 24.382812 -33.558594 27.277344 -31.234375 27.277344 -27.210938 Z M 27.277344 -27.210938 "/></g></g></g><g fill="#ffffff" fill-opacity="1"><g transform="translate(77.618033, 56.958971)"><g><path d="M 35.382812 -23.066406 L 21.621094 -23.066406 C 20.171875 -23.066406 19.796875 -22.375 19.796875 -21.242188 L 19.796875 -16.339844 C 19.796875 -15.207031 20.171875 -14.519531 21.621094 -14.519531 L 27.277344 -14.519531 C 27.277344 -9.679688 24.382812 -7.792969 20.300781 -7.792969 C 16.152344 -7.792969 13.386719 -10.117188 13.386719 -14.140625 L 13.386719 -26.773438 C 13.386719 -30.792969 16.152344 -33.558594 20.300781 -33.558594 C 24.511719 -33.558594 26.773438 -31.675781 27.464844 -29.726562 C 27.777344 -28.847656 27.527344 -27.589844 29.285156 -27.589844 L 35.382812 -27.589844 C 36.828125 -27.589844 37.207031 -27.839844 37.207031 -29.347656 C 37.207031 -37.769531 28.15625 -42.296875 20.300781 -42.296875 C 12.882812 -42.296875 3.394531 -38.085938 3.394531 -28.15625 L 3.394531 -12.695312 C 3.394531 -2.828125 12.882812 0.941406 20.300781 0.941406 C 27.464844 0.941406 36.640625 -3.078125 37.207031 -12.128906 L 37.207031 -21.242188 C 37.207031 -22.375 36.828125 -23.066406 35.382812 -23.066406 Z M 35.382812 -23.066406 "/></g></g></g><g fill="#ffffff" fill-opacity="1"><g transform="translate(118.213877, 56.958971)"><g><path d="M 22.625 -8.609375 L 18.664062 -8.609375 L 18.664062 -32.617188 L 22.4375 -32.617188 C 23.882812 -32.617188 24.257812 -33.308594 24.257812 -34.441406 L 24.257812 -39.53125 C 24.257812 -40.660156 23.882812 -41.351562 22.4375 -41.351562 L 4.964844 -41.351562 C 3.519531 -41.351562 3.140625 -40.660156 3.140625 -39.53125 L 3.140625 -34.441406 C 3.140625 -33.308594 3.519531 -32.617188 4.964844 -32.617188 L 8.796875 -32.617188 L 8.796875 -8.609375 L 4.839844 -8.609375 C 3.394531 -8.609375 3.015625 -7.917969 3.015625 -6.789062 L 3.015625 -1.824219 C 3.015625 -0.691406 3.394531 0 4.839844 0 L 22.625 0 C 24.070312 0 24.449219 -0.691406 24.449219 -1.824219 L 24.449219 -6.789062 C 24.449219 -7.917969 24.070312 -8.609375 22.625 -8.609375 Z M 22.625 -8.609375 "/></g></g></g><g fill="#ffffff" fill-opacity="1"><g transform="translate(146.115662, 56.958971)"><g><path d="M 36.386719 -41.351562 L 30.355469 -41.351562 C 29.222656 -41.351562 28.53125 -40.976562 28.53125 -39.53125 L 28.53125 -17.722656 L 15.207031 -39.214844 C 14.390625 -40.472656 13.953125 -41.351562 12.378906 -41.351562 L 6.472656 -41.351562 C 5.027344 -41.351562 4.652344 -40.660156 4.652344 -39.53125 L 4.652344 -1.824219 C 4.652344 -0.378906 5.34375 0 6.472656 0 L 12.695312 0 C 13.828125 0 14.519531 -0.378906 14.519531 -1.824219 L 14.519531 -23.691406 L 27.839844 -2.136719 C 28.65625 -0.878906 29.097656 0 30.667969 0 L 36.386719 0 C 37.832031 0 38.210938 -0.691406 38.210938 -1.824219 L 38.210938 -39.53125 C 38.210938 -40.976562 37.519531 -41.351562 36.386719 -41.351562 Z M 36.386719 -41.351562 "/></g></g></g></svg>