<svg xmlns="http://www.w3.org/2000/svg" xmlns:xlink="http://www.w3.org/1999/xlink" width="90" zoomAndPan="magnify" viewBox="0 0 67.5 42" height="56" preserveAspectRatio="xMidYMid meet" version="1.0"><defs><g/><clipPath id="5367d9c50b"><path d="M 0.539062 0 L 66.472656 0 L 66.472656 40.914062 L 0.539062 40.914062 Z M 0.539062 0 " clip-rule="nonzero"/></clipPath><clipPath id="810b6d29da"><path d="M 21 0 L 46.011719 0 C 51.4375 0 56.640625 2.15625 60.480469 5.992188 C 64.316406 9.828125 66.472656 15.03125 66.472656 20.457031 C 66.472656 25.882812 64.316406 31.085938 60.480469 34.921875 C 56.640625 38.757812 51.4375 40.914062 46.011719 40.914062 L 21 40.914062 C 15.574219 40.914062 10.367188 38.757812 6.53125 34.921875 C 2.695312 31.085938 0.539062 25.882812 0.539062 20.457031 C 0.539062 15.03125 2.695312 9.828125 6.53125 5.992188 C 10.367188 2.15625 15.574219 0 21 0 Z M 21 0 " clip-rule="nonzero"/></clipPath></defs><g clip-path="url(#5367d9c50b)"><g clip-path="url(#810b6d29da)"><path fill="#f0d7e0" d="M 0.539062 0 L 66.472656 0 L 66.472656 40.914062 L 0.539062 40.914062 Z M 0.539062 0 " fill-opacity="1" fill-rule="nonzero"/></g></g><g fill="#1d0d33" fill-opacity="1"><g transform="translate(22.311409, 24.17442)"><g><path d="M 7.816406 -5.09375 L 4.777344 -5.09375 C 4.457031 -5.09375 4.371094 -4.941406 4.371094 -4.691406 L 4.371094 -3.609375 C 4.371094 -3.359375 4.457031 -3.207031 4.777344 -3.207031 L 6.023438 -3.207031 C 6.023438 -2.136719 5.386719 -1.722656 4.484375 -1.722656 C 3.566406 -1.722656 2.957031 -2.234375 2.957031 -3.125 L 2.957031 -5.914062 C 2.957031 -6.800781 3.566406 -7.414062 4.484375 -7.414062 C 5.414062 -7.414062 5.914062 -6.996094 6.066406 -6.566406 C 6.136719 -6.371094 6.082031 -6.09375 6.46875 -6.09375 L 7.816406 -6.09375 C 8.136719 -6.09375 8.21875 -6.148438 8.21875 -6.484375 C 8.21875 -8.34375 6.21875 -9.34375 4.484375 -9.34375 C 2.847656 -9.34375 0.75 -8.414062 0.75 -6.21875 L 0.75 -2.804688 C 0.75 -0.625 2.847656 0.207031 4.484375 0.207031 C 6.066406 0.207031 8.09375 -0.679688 8.21875 -2.679688 L 8.21875 -4.691406 C 8.21875 -4.941406 8.136719 -5.09375 7.816406 -5.09375 Z M 7.816406 -5.09375 "/></g></g></g><g fill="#1d0d33" fill-opacity="1"><g transform="translate(31.273297, 24.17442)"><g><path d="M 8.203125 -2.929688 L 8.203125 -6.207031 C 8.203125 -8.398438 6.121094 -9.34375 4.46875 -9.34375 C 2.816406 -9.34375 0.761719 -8.398438 0.761719 -6.207031 L 0.761719 -2.929688 C 0.761719 -0.734375 2.816406 0.207031 4.46875 0.207031 C 6.121094 0.207031 8.203125 -0.734375 8.203125 -2.929688 Z M 6.023438 -6.011719 L 6.023438 -3.125 C 6.023438 -2.234375 5.386719 -1.722656 4.46875 -1.722656 C 3.566406 -1.722656 2.929688 -2.234375 2.929688 -3.125 L 2.929688 -6.011719 C 2.929688 -6.898438 3.566406 -7.414062 4.46875 -7.414062 C 5.386719 -7.414062 6.023438 -6.898438 6.023438 -6.011719 Z M 6.023438 -6.011719 "/></g></g></g><g fill="#1d0d33" fill-opacity="1"><g transform="translate(40.221301, 24.17442)"><g><path d="M 1.957031 -2.875 L 2.636719 -2.875 C 2.957031 -2.875 2.984375 -2.914062 3.027344 -3.277344 C 3.625 -8.757812 3.636719 -8.800781 3.636719 -8.84375 C 3.636719 -9.09375 3.511719 -9.132812 3.21875 -9.132812 L 1.359375 -9.132812 C 1.082031 -9.132812 0.957031 -9.078125 0.957031 -8.84375 C 0.957031 -8.800781 0.972656 -8.757812 1.554688 -3.277344 C 1.597656 -2.929688 1.625 -2.875 1.957031 -2.875 Z M 3.066406 -2.347656 L 1.527344 -2.347656 C 1.277344 -2.347656 1.125 -2.261719 1.125 -1.945312 L 1.125 -0.402344 C 1.125 -0.0820312 1.277344 0 1.527344 0 L 3.066406 0 C 3.316406 0 3.46875 -0.0820312 3.46875 -0.402344 L 3.46875 -1.945312 C 3.46875 -2.261719 3.316406 -2.347656 3.066406 -2.347656 Z M 3.066406 -2.347656 "/></g></g></g></svg>