<svg xmlns="http://www.w3.org/2000/svg" xmlns:xlink="http://www.w3.org/1999/xlink" width="448" zoomAndPan="magnify" viewBox="0 0 336 37.5" height="50" preserveAspectRatio="xMidYMid meet" version="1.0"><defs><filter x="0%" y="0%" width="100%" height="100%" id="7e8d114da2"><feColorMatrix values="0 0 0 0 1 0 0 0 0 1 0 0 0 0 1 0 0 0 1 0" color-interpolation-filters="sRGB"/></filter><g/><clipPath id="7c1b36d72e"><path d="M 2.210938 0 L 333.789062 0 L 333.789062 37 L 2.210938 37 Z M 2.210938 0 " clip-rule="nonzero"/></clipPath><mask id="edb0e9e309"><g filter="url(#7e8d114da2)"><rect x="-33.6" width="403.2" fill="#000000" y="-3.75" height="45" fill-opacity="0.5"/></g></mask><clipPath id="f373d4c3a5"><path d="M 0.210938 0 L 331.789062 0 L 331.789062 36.648438 L 0.210938 36.648438 Z M 0.210938 0 " clip-rule="nonzero"/></clipPath><clipPath id="154832f79f"><path d="M 18.535156 0 L 313.464844 0 C 323.585938 0 331.789062 8.203125 331.789062 18.324219 C 331.789062 28.445312 323.585938 36.648438 313.464844 36.648438 L 18.535156 36.648438 C 8.414062 36.648438 0.210938 28.445312 0.210938 18.324219 C 0.210938 8.203125 8.414062 0 18.535156 0 Z M 18.535156 0 " clip-rule="nonzero"/></clipPath><clipPath id="a9013ade63"><rect x="0" width="332" y="0" height="37"/></clipPath><mask id="556c773110"><g filter="url(#7e8d114da2)"><rect x="-33.6" width="403.2" fill="#000000" y="-3.75" height="45" fill-opacity="0.5"/></g></mask><clipPath id="30076d751a"><rect x="0" width="48" y="0" height="19"/></clipPath></defs><g clip-path="url(#7c1b36d72e)"><g mask="url(#edb0e9e309)"><g transform="matrix(1, 0, 0, 1, 2, -0.000000000000001478)"><g clip-path="url(#a9013ade63)"><g clip-path="url(#f373d4c3a5)"><g clip-path="url(#154832f79f)"><path fill="#d9d9d9" d="M 0.210938 0 L 331.789062 0 L 331.789062 36.648438 L 0.210938 36.648438 Z M 0.210938 0 " fill-opacity="1" fill-rule="nonzero"/></g></g></g></g></g></g><g mask="url(#556c773110)"><g transform="matrix(1, 0, 0, 1, 144, 9)"><g clip-path="url(#30076d751a)"><g fill="#ffffff" fill-opacity="1"><g transform="translate(0.868598, 14.502933)"><g><path d="M 0.9375 0 L 0.9375 -10.765625 L 3.203125 -10.765625 L 3.203125 -1.875 L 7.828125 -1.875 L 7.828125 0 Z M 0.9375 0 "/></g></g></g><g fill="#ffffff" fill-opacity="1"><g transform="translate(9.266114, 14.502933)"><g><path d="M 10.828125 -5.375 C 10.828125 -4.207031 10.601562 -3.210938 10.15625 -2.390625 C 9.71875 -1.566406 9.117188 -0.9375 8.359375 -0.5 C 7.597656 -0.0703125 6.738281 0.140625 5.78125 0.140625 C 4.820312 0.140625 3.960938 -0.0703125 3.203125 -0.5 C 2.441406 -0.9375 1.84375 -1.566406 1.40625 -2.390625 C 0.96875 -3.210938 0.75 -4.207031 0.75 -5.375 C 0.75 -6.550781 0.96875 -7.550781 1.40625 -8.375 C 1.84375 -9.195312 2.441406 -9.820312 3.203125 -10.25 C 3.960938 -10.6875 4.820312 -10.90625 5.78125 -10.90625 C 6.738281 -10.90625 7.597656 -10.6875 8.359375 -10.25 C 9.117188 -9.820312 9.71875 -9.195312 10.15625 -8.375 C 10.601562 -7.550781 10.828125 -6.550781 10.828125 -5.375 Z M 8.515625 -5.375 C 8.515625 -6.519531 8.265625 -7.390625 7.765625 -7.984375 C 7.273438 -8.585938 6.613281 -8.890625 5.78125 -8.890625 C 4.957031 -8.890625 4.296875 -8.585938 3.796875 -7.984375 C 3.296875 -7.390625 3.046875 -6.519531 3.046875 -5.375 C 3.046875 -4.238281 3.296875 -3.367188 3.796875 -2.765625 C 4.296875 -2.160156 4.957031 -1.859375 5.78125 -1.859375 C 6.613281 -1.859375 7.273438 -2.160156 7.765625 -2.765625 C 8.265625 -3.367188 8.515625 -4.238281 8.515625 -5.375 Z M 8.515625 -5.375 "/></g></g></g><g fill="#ffffff" fill-opacity="1"><g transform="translate(20.837663, 14.502933)"><g><path d="M 8.078125 -7.28125 C 7.929688 -7.789062 7.660156 -8.1875 7.265625 -8.46875 C 6.878906 -8.75 6.394531 -8.890625 5.8125 -8.890625 C 4.988281 -8.890625 4.320312 -8.585938 3.8125 -7.984375 C 3.300781 -7.378906 3.046875 -6.515625 3.046875 -5.390625 C 3.046875 -4.265625 3.296875 -3.394531 3.796875 -2.78125 C 4.304688 -2.164062 4.988281 -1.859375 5.84375 -1.859375 C 6.59375 -1.859375 7.179688 -2.054688 7.609375 -2.453125 C 8.046875 -2.847656 8.273438 -3.378906 8.296875 -4.046875 L 5.984375 -4.046875 L 5.984375 -5.765625 L 10.484375 -5.765625 L 10.484375 -4.40625 C 10.484375 -3.457031 10.28125 -2.644531 9.875 -1.96875 C 9.476562 -1.289062 8.929688 -0.769531 8.234375 -0.40625 C 7.535156 -0.0390625 6.734375 0.140625 5.828125 0.140625 C 4.816406 0.140625 3.925781 -0.078125 3.15625 -0.515625 C 2.394531 -0.960938 1.800781 -1.597656 1.375 -2.421875 C 0.957031 -3.253906 0.75 -4.238281 0.75 -5.375 C 0.75 -6.53125 0.96875 -7.519531 1.40625 -8.34375 C 1.851562 -9.175781 2.457031 -9.8125 3.21875 -10.25 C 3.976562 -10.6875 4.832031 -10.90625 5.78125 -10.90625 C 6.59375 -10.90625 7.328125 -10.75 7.984375 -10.4375 C 8.640625 -10.132812 9.175781 -9.707031 9.59375 -9.15625 C 10.019531 -8.613281 10.285156 -7.988281 10.390625 -7.28125 Z M 8.078125 -7.28125 "/></g></g></g><g fill="#ffffff" fill-opacity="1"><g transform="translate(32.093913, 14.502933)"><g><path d="M 3.203125 -10.765625 L 3.203125 0 L 0.9375 0 L 0.9375 -10.765625 Z M 3.203125 -10.765625 "/></g></g></g><g fill="#ffffff" fill-opacity="1"><g transform="translate(36.245377, 14.502933)"><g><path d="M 9.9375 -10.765625 L 9.9375 0 L 7.96875 0 L 3.296875 -6.765625 L 3.203125 -6.765625 L 3.203125 0 L 0.9375 0 L 0.9375 -10.765625 L 2.9375 -10.765625 L 7.578125 -4 L 7.671875 -4 L 7.671875 -10.765625 Z M 9.9375 -10.765625 "/></g></g></g></g></g></g></svg>