<svg xmlns="http://www.w3.org/2000/svg" xmlns:xlink="http://www.w3.org/1999/xlink" width="40" zoomAndPan="magnify" viewBox="0 0 30 36.000001" height="48" preserveAspectRatio="xMidYMid meet" version="1.0"><defs><filter x="0%" y="0%" width="100%" height="100%" id="262301eafb"><feColorMatrix values="0 0 0 0 1 0 0 0 0 1 0 0 0 0 1 0 0 0 1 0" color-interpolation-filters="sRGB"/></filter><clipPath id="9c75c8a530"><path d="M 0.40625 12.273438 L 29.59375 12.273438 L 29.59375 34.777344 L 0.40625 34.777344 Z M 0.40625 12.273438 " clip-rule="nonzero"/></clipPath><clipPath id="78c319417a"><path d="M 4.054688 12.273438 L 25.945312 12.273438 C 26.914062 12.273438 27.839844 12.660156 28.527344 13.34375 C 29.210938 14.027344 29.59375 14.957031 29.59375 15.921875 L 29.59375 31.128906 C 29.59375 33.144531 27.960938 34.777344 25.945312 34.777344 L 4.054688 34.777344 C 3.085938 34.777344 2.160156 34.394531 1.472656 33.710938 C 0.789062 33.023438 0.40625 32.097656 0.40625 31.128906 L 0.40625 15.921875 C 0.40625 14.957031 0.789062 14.027344 1.472656 13.34375 C 2.160156 12.660156 3.085938 12.273438 4.054688 12.273438 Z M 4.054688 12.273438 " clip-rule="nonzero"/></clipPath><clipPath id="1d88c12e45"><path d="M 3.582031 0.25 L 26.398438 0.25 L 26.398438 23.066406 L 3.582031 23.066406 Z M 3.582031 0.25 " clip-rule="nonzero"/></clipPath><clipPath id="cc3633a7c5"><path d="M 14.992188 0.25 C 8.691406 0.25 3.582031 5.355469 3.582031 11.65625 C 3.582031 17.957031 8.691406 23.066406 14.992188 23.066406 C 21.292969 23.066406 26.398438 17.957031 26.398438 11.65625 C 26.398438 5.355469 21.292969 0.25 14.992188 0.25 Z M 14.992188 0.25 " clip-rule="nonzero"/></clipPath><mask id="8aece0e8a1"><g filter="url(#262301eafb)"><rect x="-3" width="36" fill="#000000" y="-3.6" height="43.200001" fill-opacity="0.5"/></g></mask><clipPath id="1b064a2160"><path d="M 0.492188 1.015625 L 9.507812 1.015625 L 9.507812 10.035156 L 0.492188 10.035156 Z M 0.492188 1.015625 " clip-rule="nonzero"/></clipPath><clipPath id="29a6ff1abd"><path d="M 5 1.015625 C 2.507812 1.015625 0.492188 3.035156 0.492188 5.527344 C 0.492188 8.015625 2.507812 10.035156 5 10.035156 C 7.492188 10.035156 9.507812 8.015625 9.507812 5.527344 C 9.507812 3.035156 7.492188 1.015625 5 1.015625 Z M 5 1.015625 " clip-rule="nonzero"/></clipPath><clipPath id="1e3a61a7e8"><rect x="0" width="10" y="0" height="11"/></clipPath></defs><g clip-path="url(#9c75c8a530)"><g clip-path="url(#78c319417a)"><path fill="#a6a6a6" d="M 0.40625 12.273438 L 29.59375 12.273438 L 29.59375 34.777344 L 0.40625 34.777344 Z M 0.40625 12.273438 " fill-opacity="1" fill-rule="nonzero"/></g></g><g clip-path="url(#1d88c12e45)"><g clip-path="url(#cc3633a7c5)"><path stroke-linecap="butt" transform="matrix(1.438715, 0, 0, 1.438715, 3.58175, 0.249022)" fill="none" stroke-linejoin="miter" d="M 7.930993 0.000679586 C 3.551542 0.000679586 0.000195786 3.549311 0.000195786 7.928761 C 0.000195786 12.308212 3.551542 15.859558 7.930993 15.859558 C 12.310443 15.859558 15.859074 12.308212 15.859074 7.928761 C 15.859074 3.549311 12.310443 0.000679586 7.930993 0.000679586 Z M 7.930993 0.000679586 " stroke="#a6a6a6" stroke-width="3.043256" stroke-opacity="1" stroke-miterlimit="4"/></g></g><g mask="url(#8aece0e8a1)"><g transform="matrix(1, 0, 0, 1, 10, 18)"><g clip-path="url(#1e3a61a7e8)"><g clip-path="url(#1b064a2160)"><g clip-path="url(#29a6ff1abd)"><path fill="#ffffff" d="M 0.492188 1.015625 L 9.507812 1.015625 L 9.507812 10.035156 L 0.492188 10.035156 Z M 0.492188 1.015625 " fill-opacity="1" fill-rule="nonzero"/></g></g></g></g></g></svg>