<svg xmlns="http://www.w3.org/2000/svg" xmlns:xlink="http://www.w3.org/1999/xlink" width="303" zoomAndPan="magnify" viewBox="0 0 227.25 75.749998" height="101" preserveAspectRatio="xMidYMid meet" version="1.0"><defs><g/></defs><g fill="#ffffff" fill-opacity="1"><g transform="translate(1.69385, 56.450476)"><g><path d="M 23.371094 -23.25 C 20.9375 -24.222656 11.992188 -25.5625 11.992188 -29.277344 C 11.992188 -32.015625 15.339844 -32.804688 17.347656 -32.804688 C 19.171875 -32.804688 21.363281 -32.257812 22.519531 -31.164062 C 23.25 -30.433594 23.554688 -29.945312 23.796875 -29.335938 C 24.101562 -28.546875 24.285156 -27.695312 25.441406 -27.695312 L 31.40625 -27.695312 C 32.804688 -27.695312 33.171875 -27.9375 33.171875 -29.398438 C 33.171875 -37.433594 24.710938 -40.960938 16.980469 -40.960938 C 9.375 -40.65625 2.191406 -36.761719 2.191406 -28.851562 C 2.191406 -21.121094 7.851562 -18.683594 14 -16.738281 C 19.171875 -15.09375 24.589844 -15.035156 24.589844 -11.625 C 24.589844 -8.214844 21.910156 -7.488281 18.625 -7.488281 C 16.371094 -7.488281 13.878906 -8.035156 12.660156 -9.496094 C 11.867188 -10.40625 11.5625 -11.199219 11.503906 -11.992188 C 11.382812 -13.511719 10.710938 -13.695312 9.3125 -13.695312 L 3.410156 -13.695312 C 2.007812 -13.695312 1.644531 -13.390625 1.644531 -11.992188 C 1.644531 -3.46875 10.40625 0.914062 18.015625 0.914062 C 27.390625 0.914062 34.207031 -3.226562 34.207031 -11.867188 C 34.207031 -20.144531 27.753906 -21.910156 23.371094 -23.25 Z M 23.371094 -23.25 "/></g></g></g><g fill="#ffffff" fill-opacity="1"><g transform="translate(38.514124, 56.450476)"><g><path d="M 21.910156 -8.339844 L 18.078125 -8.339844 L 18.078125 -31.589844 L 21.730469 -31.589844 C 23.128906 -31.589844 23.492188 -32.257812 23.492188 -33.355469 L 23.492188 -38.285156 C 23.492188 -39.378906 23.128906 -40.050781 21.730469 -40.050781 L 4.808594 -40.050781 C 3.410156 -40.050781 3.042969 -39.378906 3.042969 -38.285156 L 3.042969 -33.355469 C 3.042969 -32.257812 3.410156 -31.589844 4.808594 -31.589844 L 8.519531 -31.589844 L 8.519531 -8.339844 L 4.6875 -8.339844 C 3.285156 -8.339844 2.921875 -7.667969 2.921875 -6.574219 L 2.921875 -1.765625 C 2.921875 -0.667969 3.285156 0 4.6875 0 L 21.910156 0 C 23.3125 0 23.675781 -0.667969 23.675781 -1.765625 L 23.675781 -6.574219 C 23.675781 -7.667969 23.3125 -8.339844 21.910156 -8.339844 Z M 21.910156 -8.339844 "/></g></g></g><g fill="#ffffff" fill-opacity="1"><g transform="translate(65.535941, 56.450476)"><g><path d="M 34.265625 -22.335938 L 20.9375 -22.335938 C 19.539062 -22.335938 19.171875 -21.667969 19.171875 -20.570312 L 19.171875 -15.824219 C 19.171875 -14.730469 19.539062 -14.058594 20.9375 -14.058594 L 26.414062 -14.058594 C 26.414062 -9.375 23.617188 -7.546875 19.660156 -7.546875 C 15.640625 -7.546875 12.964844 -9.800781 12.964844 -13.695312 L 12.964844 -25.929688 C 12.964844 -29.824219 15.640625 -32.5 19.660156 -32.5 C 23.738281 -32.5 25.929688 -30.675781 26.597656 -28.789062 C 26.902344 -27.9375 26.660156 -26.71875 28.363281 -26.71875 L 34.265625 -26.71875 C 35.667969 -26.71875 36.03125 -26.964844 36.03125 -28.421875 C 36.03125 -36.578125 27.265625 -40.960938 19.660156 -40.960938 C 12.476562 -40.960938 3.285156 -36.882812 3.285156 -27.265625 L 3.285156 -12.292969 C 3.285156 -2.738281 12.476562 0.914062 19.660156 0.914062 C 26.597656 0.914062 35.484375 -2.980469 36.03125 -11.746094 L 36.03125 -20.570312 C 36.03125 -21.667969 35.667969 -22.335938 34.265625 -22.335938 Z M 34.265625 -22.335938 "/></g></g></g><g fill="#ffffff" fill-opacity="1"><g transform="translate(104.851471, 56.450476)"><g><path d="M 35.242188 -40.050781 L 29.398438 -40.050781 C 28.300781 -40.050781 27.632812 -39.683594 27.632812 -38.285156 L 27.632812 -17.164062 L 14.730469 -37.980469 C 13.9375 -39.195312 13.511719 -40.050781 11.992188 -40.050781 L 6.269531 -40.050781 C 4.871094 -40.050781 4.503906 -39.378906 4.503906 -38.285156 L 4.503906 -1.765625 C 4.503906 -0.363281 5.171875 0 6.269531 0 L 12.292969 0 C 13.390625 0 14.058594 -0.363281 14.058594 -1.765625 L 14.058594 -22.945312 L 26.964844 -2.070312 C 27.753906 -0.851562 28.179688 0 29.703125 0 L 35.242188 0 C 36.640625 0 37.003906 -0.667969 37.003906 -1.765625 L 37.003906 -38.285156 C 37.003906 -39.683594 36.335938 -40.050781 35.242188 -40.050781 Z M 35.242188 -40.050781 "/></g></g></g><g fill="#ffffff" fill-opacity="1"><g transform="translate(146.357952, 56.450476)"><g><path d="M 34.449219 -40.050781 L 28.421875 -40.050781 C 27.328125 -40.050781 26.660156 -39.683594 26.660156 -38.285156 L 26.660156 -13.574219 C 26.660156 -9.738281 24.101562 -7.546875 20.085938 -7.546875 C 16.066406 -7.546875 13.574219 -9.738281 13.574219 -13.574219 L 13.574219 -38.285156 C 13.574219 -39.683594 12.902344 -40.050781 11.808594 -40.050781 L 5.78125 -40.050781 C 4.6875 -40.050781 4.015625 -39.683594 4.015625 -38.285156 L 4.015625 -12.234375 C 4.015625 -2.679688 12.84375 0.914062 20.085938 0.914062 C 27.328125 0.914062 36.214844 -2.679688 36.214844 -12.234375 L 36.214844 -38.285156 C 36.214844 -39.683594 35.546875 -40.050781 34.449219 -40.050781 Z M 34.449219 -40.050781 "/></g></g></g><g fill="#ffffff" fill-opacity="1"><g transform="translate(186.586381, 56.450476)"><g><path d="M 19.964844 -40.050781 L 6.269531 -40.050781 C 4.871094 -40.050781 4.503906 -39.378906 4.503906 -38.285156 L 4.503906 -1.765625 C 4.503906 -0.363281 5.171875 0 6.269531 0 L 12.292969 0 C 13.390625 0 14.058594 -0.363281 14.058594 -1.765625 L 14.058594 -11.867188 L 19.902344 -11.867188 C 30.3125 -11.867188 35.910156 -17.46875 35.910156 -25.929688 C 35.910156 -34.328125 30.433594 -40.050781 19.964844 -40.050781 Z M 19.902344 -20.085938 L 14.058594 -20.085938 L 14.058594 -31.46875 L 19.902344 -31.46875 C 24.648438 -31.46875 26.71875 -28.910156 26.71875 -25.746094 C 26.71875 -22.703125 24.648438 -20.085938 19.902344 -20.085938 Z M 19.902344 -20.085938 "/></g></g></g></svg>