<svg xmlns="http://www.w3.org/2000/svg" xmlns:xlink="http://www.w3.org/1999/xlink" width="213" zoomAndPan="magnify" viewBox="0 0 159.75 159.749995" height="213" preserveAspectRatio="xMidYMid meet" version="1.0"><defs><clipPath id="6094f57160"><path d="M 0 0 L 159.398438 0 L 159.398438 159.199219 L 0 159.199219 Z M 0 0 " clip-rule="nonzero"/></clipPath><clipPath id="e20cdffcdf"><path d="M 28.457031 0 L 130.945312 0 C 138.492188 0 145.730469 2.996094 151.066406 8.335938 C 156.402344 13.671875 159.398438 20.910156 159.398438 28.457031 L 159.398438 130.746094 C 159.398438 138.292969 156.402344 145.53125 151.066406 150.867188 C 145.730469 156.203125 138.492188 159.199219 130.945312 159.199219 L 28.457031 159.199219 C 20.910156 159.199219 13.671875 156.203125 8.335938 150.867188 C 2.996094 145.53125 0 138.292969 0 130.746094 L 0 28.457031 C 0 20.910156 2.996094 13.671875 8.335938 8.335938 C 13.671875 2.996094 20.910156 0 28.457031 0 Z M 28.457031 0 " clip-rule="nonzero"/></clipPath></defs><g clip-path="url(#6094f57160)"><g clip-path="url(#e20cdffcdf)"><path fill="#1d0d33" d="M 0 0 L 159.398438 0 L 159.398438 159.199219 L 0 159.199219 Z M 0 0 " fill-opacity="1" fill-rule="nonzero"/></g></g></svg>