<svg xmlns="http://www.w3.org/2000/svg" xmlns:xlink="http://www.w3.org/1999/xlink" width="76" zoomAndPan="magnify" viewBox="0 0 56.879997 49.499998" height="66" preserveAspectRatio="xMidYMid meet" version="1.0"><defs><clipPath id="27bf2a0cb4"><path d="M 0.226562 0 L 56.535156 0 L 56.535156 47 L 0.226562 47 Z M 0.226562 0 " clip-rule="nonzero"/></clipPath><clipPath id="6839d4d836"><path d="M 2.445312 7.824219 C -2.09375 15.304688 1.101562 22.585938 5.125 26.453125 L 24.34375 44.894531 C 26.734375 47.183594 30.511719 47.167969 32.878906 44.855469 L 51.640625 26.53125 C 55.378906 22.375 56.8125 17.964844 56.019531 13.054688 C 54.917969 6.261719 49.320312 0.992188 42.40625 0.238281 C 38.164062 -0.21875 34.066406 0.984375 30.871094 3.640625 C 30.007812 4.355469 29.242188 5.15625 28.570312 6.023438 C 27.773438 5.035156 26.84375 4.128906 25.785156 3.328125 C 22.109375 0.53125 17.429688 -0.578125 12.933594 0.285156 C 8.675781 1.109375 4.855469 3.855469 2.445312 7.824219 Z M 2.445312 7.824219 " clip-rule="nonzero"/></clipPath></defs><g clip-path="url(#27bf2a0cb4)"><g clip-path="url(#6839d4d836)"><path fill="#f0d7e0" d="M 0.226562 0 L 56.230469 0 L 56.230469 49.003906 L 0.226562 49.003906 Z M 0.226562 0 " fill-opacity="1" fill-rule="nonzero"/></g></g></svg>