<svg xmlns="http://www.w3.org/2000/svg" xmlns:xlink="http://www.w3.org/1999/xlink" width="487" zoomAndPan="magnify" viewBox="0 0 365.25 75.749997" height="101" preserveAspectRatio="xMidYMid meet" version="1.0"><defs><g/></defs><g fill="#000000" fill-opacity="1"><g transform="translate(0.393415, 57.054254)"><g><path d="M 24.171875 -24.046875 C 21.65625 -25.054688 12.402344 -26.441406 12.402344 -30.28125 C 12.402344 -33.113281 15.863281 -33.929688 17.941406 -33.929688 C 19.828125 -33.929688 22.097656 -33.363281 23.292969 -32.230469 C 24.046875 -31.476562 24.363281 -30.972656 24.613281 -30.34375 C 24.929688 -29.523438 25.117188 -28.644531 26.3125 -28.644531 L 32.484375 -28.644531 C 33.929688 -28.644531 34.308594 -28.894531 34.308594 -30.40625 C 34.308594 -38.714844 25.558594 -42.367188 17.5625 -42.367188 C 9.695312 -42.050781 2.265625 -38.023438 2.265625 -29.839844 C 2.265625 -21.84375 8.121094 -19.328125 14.480469 -17.3125 C 19.828125 -15.613281 25.433594 -15.550781 25.433594 -12.023438 C 25.433594 -8.5 22.664062 -7.742188 19.261719 -7.742188 C 16.933594 -7.742188 14.351562 -8.308594 13.09375 -9.820312 C 12.277344 -10.765625 11.960938 -11.582031 11.898438 -12.402344 C 11.773438 -13.976562 11.078125 -14.164062 9.632812 -14.164062 L 3.523438 -14.164062 C 2.078125 -14.164062 1.699219 -13.847656 1.699219 -12.402344 C 1.699219 -3.589844 10.765625 0.945312 18.632812 0.945312 C 28.328125 0.945312 35.378906 -3.335938 35.378906 -12.277344 C 35.378906 -20.835938 28.707031 -22.664062 24.171875 -24.046875 Z M 24.171875 -24.046875 "/></g></g></g><g fill="#000000" fill-opacity="1"><g transform="translate(38.476344, 57.054254)"><g><path d="M 20.648438 -41.421875 L 6.484375 -41.421875 C 5.035156 -41.421875 4.660156 -40.730469 4.660156 -39.597656 L 4.660156 -1.824219 C 4.660156 -0.378906 5.351562 0 6.484375 0 L 12.714844 0 C 13.847656 0 14.542969 -0.378906 14.542969 -1.824219 L 14.542969 -12.277344 L 20.585938 -12.277344 C 31.351562 -12.277344 37.140625 -18.066406 37.140625 -26.816406 C 37.140625 -35.503906 31.476562 -41.421875 20.648438 -41.421875 Z M 20.585938 -20.773438 L 14.542969 -20.773438 L 14.542969 -32.546875 L 20.585938 -32.546875 C 25.496094 -32.546875 27.636719 -29.902344 27.636719 -26.628906 C 27.636719 -23.480469 25.496094 -20.773438 20.585938 -20.773438 Z M 20.585938 -20.773438 "/></g></g></g><g fill="#000000" fill-opacity="1"><g transform="translate(78.007047, 57.054254)"><g><path d="M 40.289062 -1.761719 L 26.375 -39.472656 C 25.808594 -40.792969 25.179688 -41.421875 23.796875 -41.421875 L 17.753906 -41.421875 C 16.367188 -41.421875 15.675781 -40.792969 15.171875 -39.472656 L 1.195312 -1.761719 C 0.882812 -1.007812 0.882812 0 2.265625 0 L 8.875 0 C 10.261719 0 10.765625 -0.378906 11.269531 -1.886719 L 13.03125 -6.863281 L 28.453125 -6.863281 L 30.21875 -1.886719 C 30.71875 -0.378906 31.222656 0 32.609375 0 L 39.21875 0 C 40.605469 0 40.605469 -1.007812 40.289062 -1.761719 Z M 20.773438 -29.585938 L 25.496094 -15.675781 L 16.050781 -15.675781 Z M 20.773438 -29.585938 "/></g></g></g><g fill="#000000" fill-opacity="1"><g transform="translate(119.237321, 57.054254)"><g><path d="M 36.574219 -12.277344 C 36.574219 -13.785156 36.070312 -14.414062 34.6875 -14.414062 L 28.515625 -14.414062 C 27.132812 -14.414062 27.007812 -13.410156 26.816406 -12.148438 C 26.3125 -9.128906 23.605469 -7.867188 20.207031 -7.867188 C 16.050781 -7.867188 13.21875 -10.136719 13.21875 -14.164062 L 13.21875 -27.257812 C 13.21875 -31.222656 16.050781 -33.554688 20.207031 -33.554688 C 23.605469 -33.554688 25.371094 -32.609375 26.691406 -30.53125 C 27.195312 -29.777344 27.257812 -28.582031 28.582031 -28.582031 L 34.625 -28.582031 C 36.070312 -28.582031 36.574219 -28.894531 36.574219 -30.40625 C 35.757812 -38.402344 28.011719 -42.367188 20.207031 -42.367188 C 12.714844 -42.367188 3.335938 -38.023438 3.335938 -28.140625 L 3.335938 -13.28125 C 3.335938 -3.398438 12.714844 0.945312 20.207031 0.945312 C 28.011719 0.945312 36.574219 -4.15625 36.574219 -12.277344 Z M 36.574219 -12.277344 "/></g></g></g><g fill="#000000" fill-opacity="1"><g transform="translate(159.019805, 57.054254)"><g><path d="M 34.6875 -8.8125 L 14.605469 -8.8125 L 14.605469 -17.121094 L 31.476562 -17.121094 C 32.921875 -17.121094 33.300781 -17.816406 33.300781 -18.949219 L 33.300781 -23.859375 C 33.300781 -24.992188 32.921875 -25.683594 31.476562 -25.683594 L 14.605469 -25.683594 L 14.605469 -32.546875 L 33.617188 -32.546875 C 35.0625 -32.546875 35.441406 -33.238281 35.441406 -34.371094 L 35.441406 -39.597656 C 35.441406 -40.730469 35.0625 -41.421875 33.617188 -41.421875 L 6.484375 -41.421875 C 5.035156 -41.421875 4.660156 -40.730469 4.660156 -39.597656 L 4.660156 -1.824219 C 4.660156 -0.691406 5.035156 0 6.484375 0 L 34.6875 0 C 36.132812 0 36.511719 -0.691406 36.511719 -1.824219 L 36.511719 -6.988281 C 36.511719 -8.121094 36.132812 -8.8125 34.6875 -8.8125 Z M 34.6875 -8.8125 "/></g></g></g><g fill="#000000" fill-opacity="1"><g transform="translate(198.487565, 57.054254)"><g><path d="M 34.183594 -21.464844 C 34.75 -21.71875 38.777344 -23.734375 38.777344 -30.089844 C 38.777344 -36.007812 34.371094 -41.484375 24.109375 -41.484375 L 6.484375 -41.484375 C 5.035156 -41.484375 4.660156 -40.792969 4.660156 -39.660156 L 4.660156 -1.824219 C 4.660156 -0.691406 5.035156 0 6.484375 0 L 24.992188 0 C 33.742188 0 39.972656 -4.09375 39.972656 -12.085938 C 39.972656 -18.886719 34.6875 -21.277344 34.183594 -21.464844 Z M 25.117188 -8.9375 L 14.542969 -8.9375 L 14.542969 -32.609375 L 24.109375 -32.609375 C 27.382812 -32.609375 29.335938 -31.917969 29.335938 -29.082031 C 29.335938 -26.628906 27.761719 -25.308594 24.109375 -25.308594 L 23.292969 -25.308594 C 21.84375 -25.308594 21.464844 -24.613281 21.464844 -23.480469 L 21.464844 -18.695312 C 21.464844 -17.5625 21.84375 -16.871094 23.292969 -16.871094 L 24.738281 -16.871094 C 27.761719 -16.871094 29.964844 -15.988281 29.964844 -13.03125 C 29.964844 -10.199219 28.203125 -8.9375 25.117188 -8.9375 Z M 25.117188 -8.9375 "/></g></g></g><g fill="#000000" fill-opacity="1"><g transform="translate(241.732143, 57.054254)"><g><path d="M 37.203125 -13.28125 L 37.203125 -28.140625 C 37.203125 -38.085938 27.761719 -42.367188 20.269531 -42.367188 C 12.777344 -42.367188 3.460938 -38.085938 3.460938 -28.140625 L 3.460938 -13.28125 C 3.460938 -3.335938 12.777344 0.945312 20.269531 0.945312 C 27.761719 0.945312 37.203125 -3.335938 37.203125 -13.28125 Z M 27.320312 -27.257812 L 27.320312 -14.164062 C 27.320312 -10.136719 24.425781 -7.804688 20.269531 -7.804688 C 16.179688 -7.804688 13.28125 -10.136719 13.28125 -14.164062 L 13.28125 -27.257812 C 13.28125 -31.285156 16.179688 -33.617188 20.269531 -33.617188 C 24.425781 -33.617188 27.320312 -31.285156 27.320312 -27.257812 Z M 27.320312 -27.257812 "/></g></g></g><g fill="#000000" fill-opacity="1"><g transform="translate(282.332945, 57.054254)"><g><path d="M 37.203125 -13.28125 L 37.203125 -28.140625 C 37.203125 -38.085938 27.761719 -42.367188 20.269531 -42.367188 C 12.777344 -42.367188 3.460938 -38.085938 3.460938 -28.140625 L 3.460938 -13.28125 C 3.460938 -3.335938 12.777344 0.945312 20.269531 0.945312 C 27.761719 0.945312 37.203125 -3.335938 37.203125 -13.28125 Z M 27.320312 -27.257812 L 27.320312 -14.164062 C 27.320312 -10.136719 24.425781 -7.804688 20.269531 -7.804688 C 16.179688 -7.804688 13.28125 -10.136719 13.28125 -14.164062 L 13.28125 -27.257812 C 13.28125 -31.285156 16.179688 -33.617188 20.269531 -33.617188 C 24.425781 -33.617188 27.320312 -31.285156 27.320312 -27.257812 Z M 27.320312 -27.257812 "/></g></g></g><g fill="#000000" fill-opacity="1"><g transform="translate(322.933747, 57.054254)"><g><path d="M 39.15625 -41.421875 L 30.65625 -41.421875 C 29.210938 -41.421875 28.769531 -41.296875 27.511719 -39.910156 L 14.480469 -25.558594 L 14.480469 -39.597656 C 14.480469 -41.042969 13.785156 -41.421875 12.714844 -41.421875 L 6.484375 -41.421875 C 5.289062 -41.421875 4.660156 -41.042969 4.660156 -39.597656 L 4.660156 -1.824219 C 4.660156 -0.378906 5.289062 0 6.484375 0 L 12.714844 0 C 13.785156 0 14.480469 -0.378906 14.480469 -1.824219 L 14.480469 -13.03125 L 18.382812 -17.121094 C 21.78125 -11.457031 27.382812 -2.015625 27.382812 -2.015625 C 28.203125 -0.691406 29.019531 0 30.53125 0 L 38.210938 0 C 39.40625 0 39.660156 -1.195312 39.15625 -2.015625 L 25.621094 -24.300781 L 39.785156 -39.660156 C 40.351562 -40.226562 40.351562 -41.421875 39.15625 -41.421875 Z M 39.15625 -41.421875 "/></g></g></g></svg>