<svg xmlns="http://www.w3.org/2000/svg" xmlns:xlink="http://www.w3.org/1999/xlink" width="306" zoomAndPan="magnify" viewBox="0 0 229.5 80.249996" height="107" preserveAspectRatio="xMidYMid meet" version="1.0"><defs><g/><clipPath id="8c30e018bb"><path d="M 0.816406 0 L 228.191406 0 L 228.191406 79.300781 L 0.816406 79.300781 Z M 0.816406 0 " clip-rule="nonzero"/></clipPath><clipPath id="4ed6ecb663"><path d="M 29.050781 0 L 199.953125 0 C 207.441406 0 214.625 2.976562 219.917969 8.269531 C 225.214844 13.566406 228.191406 20.746094 228.191406 28.234375 L 228.191406 51.066406 C 228.191406 58.554688 225.214844 65.734375 219.917969 71.03125 C 214.625 76.324219 207.441406 79.300781 199.953125 79.300781 L 29.050781 79.300781 C 21.5625 79.300781 14.378906 76.324219 9.085938 71.03125 C 3.789062 65.734375 0.816406 58.554688 0.816406 51.066406 L 0.816406 28.234375 C 0.816406 20.746094 3.789062 13.566406 9.085938 8.269531 C 14.378906 2.976562 21.5625 0 29.050781 0 Z M 29.050781 0 " clip-rule="nonzero"/></clipPath></defs><g clip-path="url(#8c30e018bb)"><g clip-path="url(#4ed6ecb663)"><path fill="#723f7a" d="M 0.816406 0 L 228.191406 0 L 228.191406 79.300781 L 0.816406 79.300781 Z M 0.816406 0 " fill-opacity="1" fill-rule="nonzero"/></g></g><g fill="#ffffff" fill-opacity="1"><g transform="translate(57.233862, 50.550354)"><g><path d="M 14.308594 -14.234375 C 12.816406 -14.828125 7.339844 -15.648438 7.339844 -17.921875 C 7.339844 -19.597656 9.390625 -20.082031 10.621094 -20.082031 C 11.738281 -20.082031 13.078125 -19.75 13.785156 -19.078125 C 14.234375 -18.628906 14.421875 -18.332031 14.570312 -17.960938 C 14.753906 -17.476562 14.867188 -16.953125 15.574219 -16.953125 L 19.226562 -16.953125 C 20.082031 -16.953125 20.308594 -17.101562 20.308594 -17.996094 C 20.308594 -22.914062 15.128906 -25.078125 10.394531 -25.078125 C 5.738281 -24.890625 1.339844 -22.503906 1.339844 -17.660156 C 1.339844 -12.929688 4.808594 -11.4375 8.570312 -10.246094 C 11.738281 -9.242188 15.054688 -9.203125 15.054688 -7.117188 C 15.054688 -5.03125 13.414062 -4.582031 11.402344 -4.582031 C 10.023438 -4.582031 8.496094 -4.917969 7.75 -5.8125 C 7.265625 -6.371094 7.078125 -6.855469 7.042969 -7.339844 C 6.96875 -8.273438 6.558594 -8.382812 5.699219 -8.382812 L 2.085938 -8.382812 C 1.230469 -8.382812 1.007812 -8.199219 1.007812 -7.339844 C 1.007812 -2.125 6.371094 0.558594 11.027344 0.558594 C 16.765625 0.558594 20.941406 -1.976562 20.941406 -7.265625 C 20.941406 -12.332031 16.992188 -13.414062 14.308594 -14.234375 Z M 14.308594 -14.234375 "/></g></g></g><g fill="#ffffff" fill-opacity="1"><g transform="translate(79.775583, 50.550354)"><g><path d="M 19.339844 -24.519531 L 2.050781 -24.519531 C 1.191406 -24.519531 0.96875 -24.109375 0.96875 -23.4375 L 0.96875 -20.34375 C 0.96875 -19.675781 1.191406 -19.265625 2.050781 -19.265625 L 7.789062 -19.265625 L 7.789062 -1.082031 C 7.789062 -0.222656 8.199219 0 8.867188 0 L 12.558594 0 C 13.226562 0 13.636719 -0.222656 13.636719 -1.082031 L 13.636719 -19.265625 L 19.339844 -19.265625 C 20.195312 -19.265625 20.417969 -19.675781 20.417969 -20.34375 L 20.417969 -23.4375 C 20.417969 -24.109375 20.195312 -24.519531 19.339844 -24.519531 Z M 19.339844 -24.519531 "/></g></g></g><g fill="#ffffff" fill-opacity="1"><g transform="translate(101.162274, 50.550354)"><g><path d="M 23.847656 -1.042969 L 15.613281 -23.363281 C 15.277344 -24.144531 14.90625 -24.519531 14.085938 -24.519531 L 10.507812 -24.519531 C 9.6875 -24.519531 9.277344 -24.144531 8.980469 -23.363281 L 0.707031 -1.042969 C 0.523438 -0.597656 0.523438 0 1.339844 0 L 5.253906 0 C 6.074219 0 6.371094 -0.222656 6.667969 -1.117188 L 7.714844 -4.0625 L 16.84375 -4.0625 L 17.886719 -1.117188 C 18.183594 -0.222656 18.480469 0 19.300781 0 L 23.214844 0 C 24.035156 0 24.035156 -0.597656 23.847656 -1.042969 Z M 12.296875 -17.511719 L 15.089844 -9.277344 L 9.5 -9.277344 Z M 12.296875 -17.511719 "/></g></g></g><g fill="#ffffff" fill-opacity="1"><g transform="translate(125.566951, 50.550354)"><g><path d="M 22.839844 -1.191406 L 17.585938 -8.832031 C 19.898438 -9.613281 22.765625 -12.332031 22.765625 -16.246094 C 22.765625 -18.628906 21.984375 -20.753906 20.605469 -22.097656 C 19.039062 -23.660156 17.25 -24.480469 13.191406 -24.480469 L 3.800781 -24.480469 C 2.945312 -24.480469 2.757812 -24.070312 2.757812 -23.398438 L 2.757812 -1.082031 C 2.757812 -0.222656 3.128906 0 3.800781 0 L 7.488281 0 C 8.160156 0 8.570312 -0.222656 8.570312 -1.082031 L 8.570312 -19.265625 L 13.527344 -19.265625 C 15.464844 -19.265625 16.953125 -18.035156 16.953125 -16.097656 C 16.953125 -14.34375 15.238281 -13.078125 13.414062 -13.078125 L 12.667969 -13.078125 C 11.8125 -13.078125 11.589844 -12.667969 11.589844 -12 L 11.589844 -9.015625 C 11.589844 -7.972656 11.664062 -7.5625 12 -7.117188 L 16.023438 -1.117188 C 16.542969 -0.335938 16.992188 0 17.886719 0 L 22.28125 0 C 22.988281 0 23.175781 -0.671875 22.839844 -1.191406 Z M 22.839844 -1.191406 "/></g></g></g><g fill="#ffffff" fill-opacity="1"><g transform="translate(150.381475, 50.550354)"><g><path d="M 19.339844 -24.519531 L 2.050781 -24.519531 C 1.191406 -24.519531 0.96875 -24.109375 0.96875 -23.4375 L 0.96875 -20.34375 C 0.96875 -19.675781 1.191406 -19.265625 2.050781 -19.265625 L 7.789062 -19.265625 L 7.789062 -1.082031 C 7.789062 -0.222656 8.199219 0 8.867188 0 L 12.558594 0 C 13.226562 0 13.636719 -0.222656 13.636719 -1.082031 L 13.636719 -19.265625 L 19.339844 -19.265625 C 20.195312 -19.265625 20.417969 -19.675781 20.417969 -20.34375 L 20.417969 -23.4375 C 20.417969 -24.109375 20.195312 -24.519531 19.339844 -24.519531 Z M 19.339844 -24.519531 "/></g></g></g></svg>