<svg xmlns="http://www.w3.org/2000/svg" xmlns:xlink="http://www.w3.org/1999/xlink" width="121" zoomAndPan="magnify" viewBox="0 0 90.75 38.999999" height="52" preserveAspectRatio="xMidYMid meet" version="1.0"><defs><g/></defs><g fill="#ffffff" fill-opacity="1"><g transform="translate(2.558298, 29.223213)"><g><path d="M 16.898438 -21.421875 L 1.789062 -21.421875 C 1.042969 -21.421875 0.847656 -21.066406 0.847656 -20.480469 L 0.847656 -17.777344 C 0.847656 -17.191406 1.042969 -16.832031 1.789062 -16.832031 L 6.804688 -16.832031 L 6.804688 -0.945312 C 6.804688 -0.195312 7.164062 0 7.75 0 L 10.972656 0 C 11.558594 0 11.917969 -0.195312 11.917969 -0.945312 L 11.917969 -16.832031 L 16.898438 -16.832031 C 17.644531 -16.832031 17.839844 -17.191406 17.839844 -17.777344 L 17.839844 -20.480469 C 17.839844 -21.066406 17.644531 -21.421875 16.898438 -21.421875 Z M 16.898438 -21.421875 "/></g></g></g><g fill="#ffffff" fill-opacity="1"><g transform="translate(21.240329, 29.223213)"><g><path d="M 17.9375 -4.558594 L 7.554688 -4.558594 L 7.554688 -8.855469 L 16.277344 -8.855469 C 17.027344 -8.855469 17.222656 -9.214844 17.222656 -9.800781 L 17.222656 -12.339844 C 17.222656 -12.925781 17.027344 -13.285156 16.277344 -13.285156 L 7.554688 -13.285156 L 7.554688 -16.832031 L 17.386719 -16.832031 C 18.132812 -16.832031 18.328125 -17.191406 18.328125 -17.777344 L 18.328125 -20.480469 C 18.328125 -21.066406 18.132812 -21.421875 17.386719 -21.421875 L 3.351562 -21.421875 C 2.605469 -21.421875 2.410156 -21.066406 2.410156 -20.480469 L 2.410156 -0.945312 C 2.410156 -0.359375 2.605469 0 3.351562 0 L 17.9375 0 C 18.6875 0 18.882812 -0.359375 18.882812 -0.945312 L 18.882812 -3.613281 C 18.882812 -4.199219 18.6875 -4.558594 17.9375 -4.558594 Z M 17.9375 -4.558594 "/></g></g></g><g fill="#ffffff" fill-opacity="1"><g transform="translate(41.64736, 29.223213)"><g><path d="M 20.835938 -0.910156 L 13.640625 -20.414062 C 13.347656 -21.097656 13.023438 -21.421875 12.308594 -21.421875 L 9.179688 -21.421875 C 8.464844 -21.421875 8.105469 -21.097656 7.847656 -20.414062 L 0.617188 -0.910156 C 0.457031 -0.519531 0.457031 0 1.171875 0 L 4.589844 0 C 5.308594 0 5.566406 -0.195312 5.828125 -0.976562 L 6.738281 -3.546875 L 14.714844 -3.546875 L 15.628906 -0.976562 C 15.886719 -0.195312 16.148438 0 16.863281 0 L 20.285156 0 C 21 0 21 -0.519531 20.835938 -0.910156 Z M 10.742188 -15.300781 L 13.1875 -8.105469 L 8.300781 -8.105469 Z M 10.742188 -15.300781 "/></g></g></g><g fill="#ffffff" fill-opacity="1"><g transform="translate(62.965713, 29.223213)"><g><path d="M 21.617188 -21.457031 L 18.492188 -21.457031 C 17.417969 -21.457031 17.253906 -20.738281 17.027344 -20.347656 L 12.535156 -12.339844 L 8.074219 -20.347656 C 7.8125 -20.738281 7.683594 -21.457031 6.578125 -21.457031 L 3.351562 -21.457031 C 2.605469 -21.457031 2.410156 -21.097656 2.410156 -20.511719 L 2.410156 -0.945312 C 2.410156 -0.195312 2.765625 0 3.351562 0 L 6.578125 0 C 7.164062 0 7.519531 -0.195312 7.519531 -0.945312 L 7.519531 -11.980469 L 10.808594 -6.285156 C 10.972656 -6.023438 11.234375 -5.601562 11.722656 -5.601562 L 13.347656 -5.601562 C 13.835938 -5.601562 14.128906 -6.023438 14.292969 -6.285156 L 17.546875 -11.980469 L 17.546875 -0.945312 C 17.546875 -0.195312 17.90625 0 18.492188 0 L 21.617188 0 C 22.203125 0 22.5625 -0.195312 22.5625 -0.945312 L 22.5625 -20.511719 C 22.5625 -21.097656 22.367188 -21.457031 21.617188 -21.457031 Z M 21.617188 -21.457031 "/></g></g></g></svg>