<svg xmlns="http://www.w3.org/2000/svg" xmlns:xlink="http://www.w3.org/1999/xlink" width="40" zoomAndPan="magnify" viewBox="0 0 30 36.000001" height="48" preserveAspectRatio="xMidYMid meet" version="1.0"><defs><clipPath id="1845ad868c"><path d="M 0.40625 18.75 L 29.59375 18.75 L 29.59375 34.777344 L 0.40625 34.777344 Z M 0.40625 18.75 " clip-rule="nonzero"/></clipPath><clipPath id="1539c8850f"><path d="M 4.054688 18.75 L 25.945312 18.75 C 27.960938 18.75 29.59375 20.386719 29.59375 22.402344 L 29.59375 31.128906 C 29.59375 33.144531 27.960938 34.777344 25.945312 34.777344 L 4.054688 34.777344 C 2.039062 34.777344 0.40625 33.144531 0.40625 31.128906 L 0.40625 22.402344 C 0.40625 20.386719 2.039062 18.75 4.054688 18.75 Z M 4.054688 18.75 " clip-rule="nonzero"/></clipPath><clipPath id="c2e3762f72"><path d="M 6.867188 0.25 L 23.132812 0.25 L 23.132812 16.511719 L 6.867188 16.511719 Z M 6.867188 0.25 " clip-rule="nonzero"/></clipPath><clipPath id="71dcaab06d"><path d="M 15 0.25 C 10.507812 0.25 6.867188 3.890625 6.867188 8.378906 C 6.867188 12.871094 10.507812 16.511719 15 16.511719 C 19.492188 16.511719 23.132812 12.871094 23.132812 8.378906 C 23.132812 3.890625 19.492188 0.25 15 0.25 Z M 15 0.25 " clip-rule="nonzero"/></clipPath><clipPath id="4ed30c22e3"><path d="M 6.867188 0.25 L 22.695312 0.25 L 22.695312 16.074219 L 6.867188 16.074219 Z M 6.867188 0.25 " clip-rule="nonzero"/></clipPath><clipPath id="fdde06167c"><path d="M 14.996094 0.25 C 10.507812 0.25 6.867188 3.886719 6.867188 8.375 C 6.867188 12.863281 10.507812 16.503906 14.996094 16.503906 C 19.484375 16.503906 23.121094 12.863281 23.121094 8.375 C 23.121094 3.886719 19.484375 0.25 14.996094 0.25 Z M 14.996094 0.25 " clip-rule="nonzero"/></clipPath></defs><g clip-path="url(#1845ad868c)"><g clip-path="url(#1539c8850f)"><path fill="#a6a6a6" d="M 0.40625 18.75 L 29.59375 18.75 L 29.59375 34.777344 L 0.40625 34.777344 Z M 0.40625 18.75 " fill-opacity="1" fill-rule="nonzero"/></g></g><g clip-path="url(#c2e3762f72)"><g clip-path="url(#71dcaab06d)"><path fill="#a6a6a6" d="M 6.867188 0.25 L 23.132812 0.25 L 23.132812 16.511719 L 6.867188 16.511719 Z M 6.867188 0.25 " fill-opacity="1" fill-rule="nonzero"/></g></g><g clip-path="url(#4ed30c22e3)"><g clip-path="url(#fdde06167c)"><path stroke-linecap="butt" transform="matrix(1.438715, 0, 0, 1.438715, 6.868305, 0.249022)" fill="none" stroke-linejoin="miter" d="M 5.649339 0.000679528 C 2.529693 0.000679528 -0.000776699 2.528434 -0.000776699 5.64808 C -0.000776699 8.767726 2.529693 11.298196 5.649339 11.298196 C 8.768985 11.298196 11.29674 8.767726 11.29674 5.64808 C 11.29674 2.528434 8.768985 0.000679528 5.649339 0.000679528 Z M 5.649339 0.000679528 " stroke="#a6a6a6" stroke-width="3.043256" stroke-opacity="1" stroke-miterlimit="4"/></g></g></svg>